SplineFontDB: 3.0
FontName: UltraMario66
FullName: Ultra Mario 66
FamilyName: Ultra Mario 66
Weight: Regular
Copyright: 2020, GlitchyPSI, original design by Nintendo
Version: 0.9
ItalicAngle: 0
UnderlinePosition: 0
UnderlineWidth: 0
Ascent: 819
Descent: 205
InvalidEm: 0
woffMajor: 0
woffMinor: 9
LayerCount: 2
Layer: 0 0 "Back" 1
Layer: 1 0 "Fore" 0
XUID: [1021 680 -151454717 25139]
FSType: 0
OS2Version: 0
OS2_WeightWidthSlopeOnly: 0
OS2_UseTypoMetrics: 0
CreationTime: 1585505745
ModificationTime: 1585509129
PfmFamily: 17
TTFWeight: 400
TTFWidth: 5
LineGap: 92
VLineGap: 92
OS2TypoAscent: 0
OS2TypoAOffset: 1
OS2TypoDescent: 0
OS2TypoDOffset: 1
OS2TypoLinegap: 92
OS2WinAscent: 0
OS2WinAOffset: 1
OS2WinDescent: 0
OS2WinDOffset: 1
HheadAscent: 0
HheadAOffset: 1
HheadDescent: 0
HheadDOffset: 1
OS2Vendor: 'PfEd'
MarkAttachClasses: 1
DEI: 91125
LangName: 1033 "" "" "" "" "" "" "" "" "" "" "" "" "" "Copyright 2020, GlitchyPSI+AAoACgAA-Licensed under the Apache License, Version 2.0 (the +ACIA-License+ACIA);+AAoA-you may not use this file except in compliance with the License.+AAoA-You may obtain a copy of the License at+AAoACgAA    http://www.apache.org/licenses/LICENSE-2.0+AAoACgAA-Unless required by applicable law or agreed to in writing, software+AAoA-distributed under the License is distributed on an +ACIA-AS IS+ACIA BASIS,+AAoA-WITHOUT WARRANTIES OR CONDITIONS OF ANY KIND, either express or implied.+AAoA-See the License for the specific language governing permissions and+AAoA-limitations under the License." "http://apache.org/licenses/LICENSE-2.0"
Encoding: win
UnicodeInterp: none
NameList: AGL For New Fonts
DisplaySize: -48
AntiAlias: 1
FitToEm: 0
WinInfo: 0 16 9
BeginPrivate: 1
BlueValues 24 [-13 18 503 503 562 662]
EndPrivate
TeXData: 1 0 0 270336 135168 90112 515329 1048576 90112 783286 444596 497025 792723 393216 433062 380633 303038 157286 324010 404750 52429 2506097 1059062 262144
BeginChars: 256 80

StartChar: uni0000
Encoding: 0 0 0
Width: 1024
HStem: 0 1024<0 1000>
VStem: 0 1000<0 1024>
LayerCount: 2
Fore
SplineSet
0 0 m 1
 0 1024 l 1
 1000 1024 l 1
 1000 0 l 1
 0 0 l 1
EndSplineSet
Validated: 1
EndChar

StartChar: A
Encoding: 65 65 1
Width: 473
VWidth: 743
Flags: HMW
LayerCount: 2
Fore
SplineSet
312.443359375 606.2109375 m 5
 466.1328125 399.723632812 l 5
 472.939453125 0 l 5
 317.4921875 0 l 5
 313.322265625 104.1640625 l 5
 191.759765625 122.41015625 l 5
 164.1484375 0 l 5
 36.078125 0 l 5
 0.060546875 56.3896484375 l 5
 201.9921875 517.37109375 l 5
 312.443359375 606.2109375 l 5
315.4140625 382.916015625 m 5
 228.08984375 246.202148438 l 5
 314.296875 245.114257812 l 5
 315.4140625 382.916015625 l 5
EndSplineSet
Validated: 1
EndChar

StartChar: B
Encoding: 66 66 2
Width: 485
VWidth: 753
HStem: 10 143.654<153.662 257.485> 628.66 20G<20.9384 333.419>
VStem: 21.6152 141.652<436.85 506.49>
LayerCount: 2
Fore
SplineSet
21.615234375 648.66015625 m 1
 339.737304688 628.254882812 l 1
 439.38671875 532.20703125 l 1
 447.790039062 454.184570312 l 1
 375.75390625 383.34765625 l 1
 484.998046875 274.103515625 l 1
 484.998046875 151.663085938 l 1
 343.34765625 10 l 1
 0.001953125 10 l 1
 21.615234375 648.66015625 l 1
257.485351562 497.856445312 m 1
 163.267578125 506.490234375 l 1
 153.662109375 153.654296875 l 1
 257.485351562 154.06640625 l 1
 307.90625 209.279296875 l 1
 307.90625 262.102539062 l 1
 231.081054688 382.638671875 l 1
 276.696289062 447.174804688 l 1
 276.696289062 469.047851562 l 1
 257.485351562 497.856445312 l 1
EndSplineSet
Validated: 1
EndChar

StartChar: C
Encoding: 67 67 3
Width: 518
VWidth: 753
Flags: W
HStem: 10 21G<171.871 391.469> 624.957 20G<225.577 412.273>
LayerCount: 2
Fore
SplineSet
427.927734375 380.108398438 m 1
 305.688476562 490.461914062 l 1
 205.521484375 380.108398438 l 1
 200.428710938 308.802734375 l 1
 256.453125 249.381835938 l 1
 336.248046875 313.896484375 l 1
 390.575195312 313.896484375 l 1
 516.208984375 181.47265625 l 1
 512.813476562 144.122070312 l 1
 370.203125 10 l 1
 168.171875 30.373046875 l 1
 0.09375 198.44921875 l 1
 0.09375 366.526367188 l 1
 20.466796875 408.970703125 l 1
 244.5703125 644.95703125 l 1
 392.2734375 644.95703125 l 1
 517.90625 519.32421875 l 1
 517.483398438 474.333007812 l 1
 427.927734375 380.108398438 l 1
EndSplineSet
Validated: 1
EndChar

StartChar: D
Encoding: 68 68 4
Width: 526
VWidth: 753
Flags: W
HStem: 10 21G<51.1818 174.992> 606.521 20G<0.0917969 235.325>
LayerCount: 2
Fore
SplineSet
186.935546875 626.521484375 m 1
 458.681640625 514.205078125 l 1
 525.908203125 446.977539062 l 1
 525.908203125 264.504882812 l 1
 494.685546875 206.889648438 l 1
 331.421875 55.6279296875 l 1
 52.9140625 10 l 1
 0.091796875 619.8515625 l 1
 186.935546875 626.521484375 l 1
350.6328125 420.572265625 m 1
 306.05859375 412.46875 l 1
 271.404296875 406.16796875 l 1
 196.966796875 247.698242188 l 1
 228.177734375 190.083007812 l 1
 297.80859375 221.29296875 l 1
 365.03515625 362.943359375 l 1
 350.6328125 420.572265625 l 1
EndSplineSet
Validated: 1
EndChar

StartChar: E
Encoding: 69 69 5
Width: 505
VWidth: 753
Flags: W
HStem: 10 153.662<361.554 470.988> 556.03 20G<323.074 450.724>
LayerCount: 2
Fore
SplineSet
0.3974609375 470.987304688 m 1
 398.958984375 576.030273438 l 1
 504.602539062 535.213867188 l 1
 504.602539062 336.532226562 l 1
 262.103515625 336.532226562 l 1
 250.099609375 305.3203125 l 1
 283.711914062 298.1171875 l 1
 358.559570312 318.171875 l 1
 391.756835938 318.171875 l 1
 391.756835938 180.469726562 l 1
 230.890625 180.469726562 l 1
 196.077148438 145.655273438 l 1
 470.98828125 163.662109375 l 1
 470.98828125 10 l 1
 89.2333984375 10 l 1
 36.412109375 58.01953125 l 1
 0.3974609375 470.987304688 l 1
EndSplineSet
Validated: 1
EndChar

StartChar: F
Encoding: 70 70 6
Width: 505
VWidth: 753
Flags: W
HStem: 6.90527 21G<130.918 253.825> 637.991 20G<282.566 451.985>
LayerCount: 2
Fore
SplineSet
0.384765625 547.637695312 m 1
 345.02734375 657.991210938 l 1
 451.985351562 642.711914062 l 1
 504.615234375 452.563476562 l 1
 467.264648438 413.515625 l 1
 243.162109375 413.515625 l 1
 254.197265625 327.779296875 l 1
 351.818359375 365.978515625 l 1
 416.33203125 365.978515625 l 1
 423.124023438 187.715820312 l 1
 391.3828125 169.389648438 l 1
 272.024414062 169.389648438 l 1
 272.024414062 45.1044921875 l 1
 233.825195312 6.9052734375 l 1
 134.506835938 6.9052734375 l 1
 84.2900390625 286.790039062 l 1
 0.384765625 547.637695312 l 1
EndSplineSet
Validated: 1
EndChar

StartChar: G
Encoding: 71 71 7
Width: 531
VWidth: 753
Flags: W
HStem: 8.7998 21G<173.062 407.439> 629.86 20G<239.31 404.92>
LayerCount: 2
Fore
SplineSet
369.942382812 421.767578125 m 1
 305.116210938 491.395507812 l 1
 206.676757812 395.356445312 l 1
 197.072265625 313.723632812 l 1
 261.8984375 244.094726562 l 1
 365.140625 234.491210938 l 1
 386.749023438 258.500976562 l 1
 307.517578125 270.505859375 l 1
 278.705078125 306.520507812 l 1
 312.319335938 414.563476562 l 1
 514.000976562 380.950195312 l 1
 530.807617188 148.055664062 l 1
 386.749023438 8.7998046875 l 1
 173.0625 11.2001953125 l 1
 4.994140625 186.471679688 l 1
 0.1923828125 392.956054688 l 1
 259.497070312 649.860351562 l 1
 389.150390625 649.860351562 l 1
 487.58984375 525.009765625 l 1
 473.184570312 421.767578125 l 1
 369.942382812 421.767578125 l 1
EndSplineSet
Validated: 1
EndChar

StartChar: H
Encoding: 72 72 8
Width: 533
VWidth: 753
Flags: W
HStem: 18.4775 21G<150.183 300.91> 625.133 17.5996G<173.729 261.003 348.702 516.998>
VStem: 346.529 170.469<474.284 642.732> 358.533 134.455<78.5029 178.362>
LayerCount: 2
Fore
SplineSet
32.001953125 592.3125 m 1xe0
 260.09375 645.1328125 l 1
 269.697265625 433.84765625 l 1
 346.529296875 431.446289062 l 1
 348.9296875 642.732421875 l 1
 516.998046875 642.732421875 l 1xe0
 492.98828125 78.5029296875 l 1
 358.533203125 73.7001953125 l 1xd0
 346.529296875 248.971679688 l 1
 303.310546875 249.571289062 l 1
 300.91015625 25.6796875 l 1
 154.451171875 18.4775390625 l 1
 32.001953125 592.310546875 l 1
 32.001953125 592.3125 l 1xe0
EndSplineSet
Validated: 1
EndChar

StartChar: I
Encoding: 73 73 9
Width: 338
VWidth: 753
Flags: W
HStem: 10 21G<40.1396 196.549>
VStem: 40.1396 297.721<-97.081 -67.0348>
LayerCount: 2
Fore
SplineSet
40.1396484375 670.267578125 m 5
 337.860351562 579.03125 l 5
 191.401367188 10 l 5
 40.1396484375 22.0048828125 l 5
 40.1396484375 670.267578125 l 5
EndSplineSet
Validated: 1
EndChar

StartChar: J
Encoding: 74 74 10
Width: 421
VWidth: 753
Flags: W
HStem: 10 21G<125.395 271.229> 613.073 20G<329.894 409.455>
LayerCount: 2
Fore
SplineSet
76.16015625 397.0859375 m 1
 111.8125 395.388671875 l 1
 142.372070312 266.359375 l 1
 203.490234375 201.845703125 l 1
 254.422851562 256.172851562 l 1
 249.330078125 335.967773438 l 1
 133.8828125 563.46484375 l 1
 408.916992188 633.073242188 l 1
 420.801757812 191.659179688 l 1
 252.724609375 10 l 1
 125.39453125 13.3955078125 l 1
 -86.82421875 227.311523438 l 1
 -103.801757812 283.336914062 l 1
 76.16015625 397.0859375 l 1
EndSplineSet
Validated: 1
EndChar

StartChar: K
Encoding: 75 75 11
Width: 496
VWidth: 753
Flags: W
HStem: 10 19.0176G<13.7266 190.697 328.401 359.738> 614.256 20G<63.8381 190.697 352.438 392.587>
LayerCount: 2
Fore
SplineSet
85.0634765625 634.255859375 m 1
 190.697265625 631.852539062 l 1
 183.500976562 425.377929688 l 1
 373.33984375 607.0234375 l 1
 495.79296875 479.77734375 l 1
 390.146484375 424.55078125 l 1
 265.1328125 293.313476562 l 1
 331.73046875 229.893554688 l 1
 469.913085938 152.043945312 l 1
 341.971679688 8.017578125 l 1
 249.849609375 143.78515625 l 1
 190.697265625 216.48828125 l 1
 190.697265625 10 l 1
 13.7265625 10 l 1
 46.6435546875 180.470703125 l 1
 22.6279296875 439.782226562 l 1
 -39.79296875 516.607421875 l 1
 85.0634765625 634.255859375 l 1
EndSplineSet
Validated: 1
EndChar

StartChar: L
Encoding: 76 76 12
Width: 452
VWidth: 753
Flags: W
HStem: 10 21G<288.498 375.668> 628.66 20G<14.3266 226.014>
LayerCount: 2
Fore
SplineSet
226.013671875 639.055664062 m 1
 175.59375 288.513671875 l 1
 451.70703125 283.7109375 l 1
 408.48828125 62.8212890625 l 1
 355.66796875 10 l 1
 -71.70703125 137.251953125 l 1
 17.828125 648.66015625 l 1
 226.013671875 639.055664062 l 1
EndSplineSet
Validated: 1
EndChar

StartChar: M
Encoding: 77 77 13
Width: 539
VWidth: 753
Flags: W
HStem: 10 21G<5.48759 159.996 365.422 538.592> 607.979 20G<94.5681 116.791 462.15 486.038>
LayerCount: 2
Fore
SplineSet
0.408203125 10 m 1
 81.900390625 330.874023438 l 1
 95.482421875 627.979492188 l 1
 289.0234375 446.321289062 l 1
 484.265625 622.88671875 l 1
 538.591796875 10 l 1
 365.421875 10 l 1
 365.421875 229.008789062 l 1
 261.859375 91.4912109375 l 1
 180.369140625 239.1953125 l 1
 159.99609375 11.6982421875 l 1
 0.408203125 10 l 1
EndSplineSet
Validated: 1
EndChar

StartChar: N
Encoding: 78 78 14
Width: 528
VWidth: 753
Flags: W
HStem: 10 0.469727G<64.5137 185.373 362.807 394.354> 578.111 60.7471G<100.541 143.492 358.225 528>
VStem: 64.5137 137.203<46.3447 165.868> 358.225 169.775<390.986 638.858>
LayerCount: 2
Fore
SplineSet
64.513671875 17.482421875 m 1
 47.537109375 368.916015625 l 1
 0 477.572265625 l 1
 120.541015625 598.111328125 l 1
 358.224609375 390.986328125 l 1
 358.224609375 638.858398438 l 1
 528 638.858398438 l 1
 528 143.115234375 l 1
 374.353515625 -10.5302734375 l 1
 201.716796875 288.485351562 l 1
 201.716796875 46.3447265625 l 1
 165.373046875 10 l 1
 64.513671875 17.482421875 l 1
EndSplineSet
Validated: 1
EndChar

StartChar: O
Encoding: 79 79 15
Width: 522
VWidth: 753
Flags: W
HStem: 1.50488 21G<175.804 353.522> 541.763 20G<206.046 348.996>
LayerCount: 2
Fore
SplineSet
226.19921875 561.762695312 m 1
 328.0625 561.762695312 l 1
 518.203125 380.104492188 l 1
 521.604492188 184.870117188 l 1
 353.522460938 10 l 1
 195.630859375 1.5048828125 l 1
 0.3955078125 198.446289062 l 1
 2.08984375 339.361328125 l 1
 226.19921875 561.762695312 l 1
304.297851562 402.176757812 m 1
 199.032226562 300.311523438 l 1
 202.432617188 256.16796875 l 1
 258.447265625 203.541992188 l 1
 362.018554688 295.217773438 l 1
 367.11328125 341.0546875 l 1
 304.297851562 402.176757812 l 1
EndSplineSet
Validated: 1
EndChar

StartChar: P
Encoding: 80 80 16
Width: 530
VWidth: 753
Flags: W
HStem: 9.30371 21G<87.9998 280.277> 629.355 20G<126.795 199.282 265.839 394.025>
LayerCount: 2
Fore
SplineSet
164.8359375 649.35546875 m 1
 217.4609375 618.80078125 l 1
 227.650390625 578.057617188 l 1
 283.677734375 640.873046875 l 1
 394.025390625 639.166015625 l 1
 529.845703125 505.051757812 l 1
 523.056640625 297.920898438 l 1
 380.44921875 163.794921875 l 1
 290.466796875 162.102539062 l 1
 273.48828125 126.453125 l 1
 280.27734375 27.98828125 l 1
 88.4296875 9.3037109375 l 1
 81.642578125 325.088867188 l 1
 0.154296875 562.774414062 l 1
 164.8359375 649.35546875 l 1
307.443359375 447.319335938 m 1
 251.41796875 435.436523438 l 1
 249.72265625 343.759765625 l 1
 271.794921875 325.088867188 l 1
 361.77734375 382.809570312 l 1
 307.443359375 447.319335938 l 1
EndSplineSet
Validated: 1
EndChar

StartChar: Q
Encoding: 81 81 17
Width: 532
VWidth: 753
Flags: W
HStem: -6.97754 15.0625G<161.588 288.671 402.601 441.184> 636.84 20G<188.754 381.186>
VStem: 7.09668 152.796<215.424 308.807> 364.893 166.8<296.494 380.104>
LayerCount: 2
Fore
SplineSet
365.317382812 656.83984375 m 1
 528.3046875 451.416015625 l 1
 531.692382812 269.7578125 l 1
 443.416992188 174.680664062 l 1
 523.2109375 86.392578125 l 1
 420.498046875 -12.9150390625 l 1
 348.33984375 67.720703125 l 1
 266.853515625 -6.9775390625 l 1
 161.587890625 10 l 1
 7.0966796875 174.680664062 l 1
 0.3076171875 446.321289062 l 1
 188.75390625 638.16796875 l 1
 365.317382812 656.83984375 l 1
283.831054688 427.649414062 m 1
 214.212890625 391.987304688 l 1
 159.892578125 308.806640625 l 1
 163.280273438 215.423828125 l 1
 210.822265625 188.262695312 l 1
 244.220703125 212.431640625 l 1
 197.122070312 259.940429688 l 1
 302.615234375 342.634765625 l 1
 351.03125 284.702148438 l 1
 364.892578125 296.494140625 l 1
 363.624023438 380.104492188 l 1
 283.831054688 427.649414062 l 1
EndSplineSet
Validated: 1
EndChar

StartChar: R
Encoding: 82 82 18
Width: 483
VWidth: 753
Flags: W
HStem: 4.21582 21G<2.48633 155.283 244.616 482.951> 634.443 20G<222.701 293.835>
VStem: 2.48633 152.797<9.29785 107.775>
LayerCount: 2
Fore
SplineSet
272.431640625 654.443359375 m 1
 479.55078125 460.903320312 l 1
 481.244140625 389.592773438 l 1
 318.26953125 221.524414062 l 1
 374.296875 165.497070312 l 1
 445.595703125 163.802734375 l 1
 482.951171875 129.84765625 l 1
 482.951171875 4.2158203125 l 1
 257.1484375 4.2158203125 l 1
 168.859375 145.118164062 l 1
 155.283203125 107.775390625 l 1
 155.283203125 9.2978515625 l 1
 2.486328125 9.2978515625 l 1
 5.88671875 401.48828125 l 1
 -39.951171875 528.8125 l 1
 272.431640625 654.443359375 l 1
201.12109375 467.706054688 m 1
 201.12109375 370.935546875 l 1
 224.888671875 353.958007812 l 1
 262.244140625 348.875976562 l 1
 279.220703125 369.241210938 l 1
 277.52734375 430.36328125 l 1
 201.12109375 467.706054688 l 1
EndSplineSet
Validated: 1
EndChar

StartChar: S
Encoding: 83 83 19
Width: 528
VWidth: 753
Flags: W
HStem: 10.1553 21G<129.975 384.144> 628.504 20G<181.174 387.088>
LayerCount: 2
Fore
SplineSet
427.833984375 364.985351562 m 1
 300.501953125 475.337890625 l 1
 239.3828125 426.103515625 l 1
 259.755859375 404.032226562 l 1
 407.4609375 334.424804688 l 1
 528 195.209960938 l 1
 366.712890625 10.1552734375 l 1
 159.58984375 10.1552734375 l 1
 28.86328125 98.4384765625 l 1
 1.69921875 162.952148438 l 1
 130.7265625 285.190429688 l 1
 219.009765625 196.907226562 l 1
 301.8671875 194.422851562 l 1
 314.083984375 215.583984375 l 1
 79.794921875 319.146484375 l 1
 0 421.010742188 l 1
 198.63671875 648.50390625 l 1
 387.087890625 641.71875 l 1
 505.9296875 519.48046875 l 1
 521.208984375 456.663085938 l 1
 427.833984375 364.985351562 l 1
EndSplineSet
Validated: 1
EndChar

StartChar: T
Encoding: 84 84 20
Width: 516
VWidth: 753
Flags: W
HStem: 10 21G<89.0399 352.826> 619.863 20G<4.78906 513.124>
LayerCount: 2
Fore
SplineSet
4.7890625 636.46875 m 1
 515.810546875 639.86328125 l 1
 494.943359375 484.493164062 l 1
 332.892578125 455.146484375 l 1
 352.826171875 25.279296875 l 1
 84.58203125 10 l 1
 177.52734375 426.999023438 l 1
 0.189453125 396.263671875 l 1
 4.7890625 636.46875 l 1
EndSplineSet
Validated: 1
EndChar

StartChar: U
Encoding: 85 85 21
Width: 527
VWidth: 753
Flags: W
HStem: 8.30273 21G<186.415 365.363> 561.445 20G<3.74414 264.174>
VStem: 0.349609 275.035<229.008 441.572> 3.74414 259.756<368.881 569.562> 322.922 203.729<232.404 449.364> 333.107 186.752<323.739 532.211>
LayerCount: 2
Fore
SplineSet
263.5 581.4453125 m 1xd0
 275.384765625 229.0078125 l 1
 288.49609375 205.375 l 1
 307.216796875 204.81640625 l 1
 322.921875 232.404296875 l 1xe8
 333.107421875 540.69921875 l 1
 519.859375 532.2109375 l 1xc4
 526.650390625 189.9609375 l 1
 365.36328125 10 l 1
 205.775390625 8.302734375 l 1
 0.349609375 220.520507812 l 1xe8
 3.744140625 569.561523438 l 1
 263.5 581.4453125 l 1xd0
EndSplineSet
Validated: 1
EndChar

StartChar: V
Encoding: 86 86 22
Width: 530
VWidth: 753
Flags: W
HStem: -3.58203 21G<219.196 344.795> 613.073 42.0703G<134.677 266.703 310.135 349.628>
LayerCount: 2
Fore
SplineSet
266.703125 638.166015625 m 1
 246.326171875 342.7578125 l 1
 279.0078125 269.754882812 l 1
 285.373046875 335.966796875 l 1
 298.955078125 597.419921875 l 1
 324.419921875 633.073242188 l 1
 529.849609375 470.088867188 l 1
 344.794921875 10 l 1
 227.650390625 -3.58203125 l 1
 0.150390625 534.603515625 l 1
 161.4375 655.143554688 l 1
 266.703125 638.166015625 l 1
EndSplineSet
Validated: 1
EndChar

StartChar: W
Encoding: 87 87 23
Width: 520
VWidth: 753
Flags: W
HStem: 6.86035 10.8135G<111.632 138.45 430.556 454.125> 642.19 20G<156.916 203.206 332.383 414.485>
LayerCount: 2
Fore
SplineSet
0.2451171875 575.60546875 m 1
 203.975585938 662.190429688 l 1
 192.08984375 353.200195312 l 1
 263.396484375 434.692382812 l 1
 324.513671875 365.084960938 l 1
 333.00390625 638.421875 l 1
 519.754882812 592.583007812 l 1
 451.845703125 -3.326171875 l 1
 283.76953125 154.564453125 l 1
 115.69140625 6.8603515625 l 1
 0.2451171875 575.60546875 l 1
EndSplineSet
Validated: 1
EndChar

StartChar: X
Encoding: 88 88 24
Width: 542
VWidth: 753
Flags: W
HStem: 12.7002 21G<361.053 395.655> 624.262 20G<129.2 162.991 370.915 408.457>
LayerCount: 2
Fore
SplineSet
151.251953125 644.26171875 m 1
 249.392578125 477.05859375 l 1
 387.237304688 645.959960938 l 1
 534.94140625 506.744140625 l 1
 348.189453125 325.0859375 l 1
 541.732421875 165.497070312 l 1
 373.655273438 12.7001953125 l 1
 246.907226562 213.858398438 l 1
 95.2255859375 38.166015625 l 1
 -11.732421875 228.313476562 l 1
 143.018554688 348.853515625 l 1
 5.244140625 511.837890625 l 1
 151.251953125 644.26171875 l 1
EndSplineSet
Validated: 1
EndChar

StartChar: Y
Encoding: 89 89 25
Width: 523
VWidth: 753
Flags: W
HStem: 10 21G<135.867 392.023> 630.357 18.3027G<129.467 212.264 351.446 420.347>
LayerCount: 2
Fore
SplineSet
0.046875 519.630859375 m 1
 152.84375 650.357421875 l 1
 212.263671875 648.66015625 l 1
 283.5703125 495.862304688 l 1
 361.66796875 648.66015625 l 1
 402.4140625 648.66015625 l 1
 522.953125 514.23046875 l 1
 388.83203125 343.065429688 l 1
 392.2265625 10 l 1
 135.8671875 11.697265625 l 1
 113.794921875 77.9091796875 l 1
 224.1484375 302.3203125 l 1
 0.046875 519.630859375 l 1
EndSplineSet
Validated: 1
EndChar

StartChar: Z
Encoding: 90 90 26
Width: 544
VWidth: 753
Flags: W
HStem: 2.51367 21G<80.6074 504.174> 443.004 206.351<39.4707 292.676>
LayerCount: 2
Fore
SplineSet
39.470703125 649.354492188 m 1
 377.322265625 656.145507812 l 1
 528.419921875 501.651367188 l 1
 533.513671875 435.438476562 l 1
 278.02734375 225.998046875 l 1
 279.724609375 197.13671875 l 1
 496.8671875 226.590820312 l 1
 543.69921875 70.4228515625 l 1
 487.673828125 2.513671875 l 1
 80.607421875 9.3046875 l 1
 0.30078125 127.323242188 l 1
 292.67578125 448.096679688 l 1
 10.283203125 443.00390625 l 1
 5.513671875 589.93359375 l 1
 39.470703125 649.354492188 l 1
EndSplineSet
Validated: 1
EndChar

StartChar: question
Encoding: 63 63 27
Width: 635
VWidth: 753
Flags: W
HStem: 9.30469 21G<197.259 339.467> 629.356 20G<160.707 487.733>
LayerCount: 2
Fore
SplineSet
179.978515625 649.356445312 m 1
 466.889648438 649.356445312 l 1
 634.971679688 488.076171875 l 1
 614.592773438 376.021484375 l 1
 390.497070312 272.450195312 l 1
 361.650390625 213.03515625 l 1
 225.831054688 197.750976562 l 1
 222.415039062 303.017578125 l 1
 310.705078125 374.314453125 l 1
 436.336914062 455.814453125 l 1
 378.627929688 491.463867188 l 1
 320.89453125 489.76953125 l 1
 244.48828125 416.765625 l 1
 237.701171875 348.85546875 l 1
 186.780273438 304.7109375 l 1
 11.896484375 340.359375 l 1
 0.0283203125 462.603515625 l 1
 179.978515625 649.356445312 l 1
336.1640625 177.385742188 m 1
 385.415039062 151.913085938 l 1
 398.993164062 75.5205078125 l 1
 382.014648438 36.4716796875 l 1
 220.736328125 9.3046875 l 1
 174.897460938 48.3544921875 l 1
 173.190429688 129.840820312 l 1
 217.3203125 160.408203125 l 1
 336.1640625 177.385742188 l 1
EndSplineSet
Validated: 1
EndChar

StartChar: exclam
Encoding: 33 33 28
Width: 255
VWidth: 753
Flags: W
HStem: 9 21G<8.41026 151.259> 635 20G<103 245.941>
VStem: -14 269
LayerCount: 2
Fore
SplineSet
12 621 m 1
 233 655 l 1
 255 621 l 1
 175 242 l 1
 147 206 l 1
 38 177 l 1
 16 210 l 1
 12 621 l 1
150 180 m 1
 196 152 l 1
 210 76 l 1
 193 36 l 1
 32 9 l 1
 -14 48 l 1
 -16 130 l 1
 28 160 l 1
 150 180 l 1
EndSplineSet
Validated: 1
EndChar

StartChar: hyphen
Encoding: 45 45 29
Width: 498
VWidth: 753
Flags: W
HStem: 243.878 166.784<185.627 440.532> 255.812 149.805<67.8057 271.06>
LayerCount: 2
Fore
SplineSet
455.19140625 410.662109375 m 1x80
 497.587890625 366.314453125 l 1
 484.569335938 266.478515625 l 1
 440.532226562 243.877929688 l 1x80
 16.154296875 255.811523438 l 1
 0.412109375 291.5859375 l 1
 26.6552734375 370.1875 l 1
 67.8056640625 405.616210938 l 1x40
 455.19140625 410.662109375 l 1x80
EndSplineSet
Validated: 1
EndChar

StartChar: plus
Encoding: 43 43 30
Width: 498
VWidth: 753
Flags: W
HStem: 239.337 162.238<343.735 440.532> 248.174 149.804<49.7939 153.725>
LayerCount: 2
Fore
SplineSet
211.578125 560.384765625 m 1x40
 325.130859375 558.047851562 l 1
 352.823242188 518.131835938 l 1
 343.735351562 401.575195312 l 1
 455.184570312 403.01953125 l 1
 497.583984375 358.678710938 l 1
 484.5703125 258.8359375 l 1
 440.532226562 236.23828125 l 1
 330.197265625 239.336914062 l 1x80
 320.796875 134.252929688 l 1
 295.614257812 84.646484375 l 1
 184.123046875 69.4150390625 l 1
 146.216796875 124.916992188 l 1
 153.724609375 244.30078125 l 1
 16.158203125 248.173828125 l 1
 0.416015625 283.940429688 l 1
 8.6435546875 362.551757812 l 1
 49.7939453125 397.977539062 l 1
 162.889648438 399.211914062 l 1
 169.37890625 516.411132812 l 1
 211.578125 560.384765625 l 1x40
EndSplineSet
Validated: 1
EndChar

StartChar: underscore
Encoding: 95 95 31
Width: 485
VWidth: 753
Flags: W
HStem: 10 166.784<49.0098 299.364> 21.9336 149.805<213.931 436.391>
LayerCount: 2
Fore
SplineSet
49.009765625 176.784179688 m 1x80
 436.390625 171.73828125 l 1
 477.54296875 136.309570312 l 1
 484.576171875 57.7080078125 l 1
 468.8359375 21.93359375 l 1x40
 44.458984375 10 l 1
 0.423828125 32.6015625 l 1
 6.609375 132.436523438 l 1
 49.009765625 176.784179688 l 1x80
EndSplineSet
Validated: 1
EndChar

StartChar: numbersign
Encoding: 35 35 32
Width: 584
VWidth: 753
Flags: W
HStem: 10 21G<116.124 169.308 368.616 435.51> 147.391 123.979<69.0078 104.667 237.53 316.381> 403.84 122.193<244.613 334.119 478.574 543.575> 626.324 20G<154.722 223.604 387.398 449.146>
VStem: 104.76 132.771<59.6074 143.819 273.339 312.145> 104.83 135.369<353.56 386.847 530.51 604.687> 311.108 139.433<59.6074 138.528> 327.456 136.453<275.781 398.351> 349.382 133.182<527.977 604.688>
LayerCount: 2
Fore
SplineSet
105.00390625 604.686523438 m 1xf4
 200.676757812 646.32421875 l 1
 246.436523438 606.407226562 l 1
 244.61328125 528.842773438 l 1
 344.91015625 527.9765625 l 1
 349.381835938 604.6875 l 1
 419.112304688 648.661132812 l 1
 482.563476562 606.407226562 l 1xf480
 478.57421875 526.295898438 l 1
 563.224609375 526.033203125 l 1
 583.580078125 510.98046875 l 1
 543.575195312 403.83984375 l 1
 469.682617188 402.014648438 l 1
 463.909179688 275.78125 l 1xf1
 553.856445312 272.810546875 l 1
 571.045898438 246.4765625 l 1
 517.583007812 137.241210938 l 1
 454.244140625 138.528320312 l 1
 450.541015625 59.607421875 l 1
 425.356445312 10.0009765625 l 1
 311.108398438 50.271484375 l 1
 316.380859375 142.099609375 l 1
 233.115234375 143.819335938 l 1
 231.203125 59.607421875 l 1
 127.497070312 10 l 1
 104.596679688 50.271484375 l 1
 104.666992188 147.390625 l 1
 17.365234375 149.176757812 l 1
 0.419921875 153.731445312 l 1
 69.0078125 271.369140625 l 1
 104.759765625 271.697265625 l 1xfa
 104.830078125 386.846679688 l 1
 36.46875 385.901367188 l 1
 14.63671875 398.89453125 l 1
 61.5498046875 531.07421875 l 1
 104.93359375 530.509765625 l 1
 105.00390625 604.686523438 l 1xf4
334.119140625 398.350585938 m 1
 240.19921875 396.512695312 l 1xf5
 237.530273438 273.338867188 l 1
 327.456054688 274.139648438 l 1xf9
 334.119140625 398.350585938 l 1
EndSplineSet
Validated: 1
EndChar

StartChar: period
Encoding: 46 46 33
Width: 233
VWidth: 753
Flags: W
HStem: -0.186523 168.189
VStem: 0.474609 232.051
LayerCount: 2
Fore
SplineSet
39.6220703125 147.995117188 m 5
 157.9921875 168.002929688 l 5
 209.345703125 152.325195312 l 5
 232.525390625 74.185546875 l 5
 200.75390625 23.03515625 l 5
 38.85546875 -0.1865234375 l 5
 10.7958984375 31.841796875 l 5
 0.474609375 108.741210938 l 5
 39.6220703125 147.995117188 l 5
EndSplineSet
Validated: 1
EndChar

StartChar: comma
Encoding: 44 44 34
Width: 187
VWidth: 753
Flags: W
HStem: -95.6426 273.832
VStem: 0.28418 186.432
LayerCount: 2
Fore
SplineSet
39.43359375 158.181640625 m 5
 112.182617188 178.189453125 l 5
 163.538085938 162.51171875 l 5
 186.715820312 84.3720703125 l 5
 154.944335938 33.2216796875 l 5
 59.0751953125 -95.642578125 l 5
 10.607421875 -75.6201171875 l 5
 66.8310546875 35.0419921875 l 5
 13.4365234375 40.607421875 l 5
 0.2841796875 118.927734375 l 5
 39.43359375 158.181640625 l 5
EndSplineSet
Validated: 1
EndChar

StartChar: quotesingle
Encoding: 39 39 35
Width: 211
VWidth: 753
Flags: W
HStem: 423.188 225.645
VStem: 0.0546875 210.891
LayerCount: 2
Fore
SplineSet
49.904296875 641.29296875 m 5
 197.080078125 648.833007812 l 5
 210.9453125 504.698242188 l 5
 69.619140625 423.188476562 l 5
 0.0546875 463.309570312 l 5
 49.904296875 549.560546875 l 5
 49.904296875 641.29296875 l 5
EndSplineSet
Validated: 1
EndChar

StartChar: zero
Encoding: 48 48 36
Width: 609
VWidth: 753
Flags: W
HStem: 2.0957 21G<194.65 368.877> 624.957 20G<277.493 425.73>
VStem: 403.543 205.278<216.987 407.862>
LayerCount: 2
Fore
SplineSet
407.141601562 644.95703125 m 1
 446.75390625 602.3359375 l 1
 440.754882812 548.318359375 l 1
 389.137695312 475.08984375 l 1
 282.28515625 387.4453125 l 1
 241.47265625 280.603515625 l 1
 241.47265625 221.779296875 l 1
 324.30078125 161.760742188 l 1
 403.54296875 216.987304688 l 1
 403.54296875 473.264648438 l 1
 445.309570312 519.5234375 l 1
 489.977539062 523.107421875 l 1
 528.383789062 497.897460938 l 1
 602.821289062 407.862304688 l 1
 608.821289062 202.583007812 l 1
 536.790039062 106.53515625 l 1
 329.10546875 2.095703125 l 1
 194.650390625 3.2900390625 l 1
 1.3740234375 189.373046875 l 1
 0.1787109375 248.197265625 l 1
 144.232421875 526.704101562 l 1
 277.493164062 644.352539062 l 1
 407.141601562 644.95703125 l 1
EndSplineSet
Validated: 1
EndChar

StartChar: one
Encoding: 49 49 37
Width: 425
VWidth: 753
Flags: W
HStem: 9.97949 21G<122.893 270.208> 617.077 20G<246.426 366.4>
LayerCount: 2
Fore
SplineSet
246.42578125 635.201171875 m 1
 337.23828125 637.077148438 l 1
 380.6640625 607.294921875 l 1
 424.673828125 528.421875 l 1
 305.90625 65.67578125 l 1
 250.20703125 9.9794921875 l 1
 122.892578125 10 l 1
 80.7578125 82.9765625 l 1
 210.41015625 422.71484375 l 1
 149.1875 360.290039062 l 1
 85.560546875 360.290039062 l 1
 42.34375 379.497070312 l 1
 0.326171875 468.333984375 l 1
 41.14453125 540.362304688 l 1
 246.42578125 635.201171875 l 1
EndSplineSet
Validated: 1
EndChar

StartChar: two
Encoding: 50 50 38
Width: 588
VWidth: 753
Flags: W
HStem: -12.1592 21G<128.677 204.564> 639.219 20G<243.1 423.598>
LayerCount: 2
Fore
SplineSet
21.123046875 519.15625 m 1
 243.099609375 654.36328125 l 1
 403.96875 659.21875 l 1
 553.90625 506.450195312 l 1
 545.50390625 430.819335938 l 1
 262.1875 176.31640625 l 1
 442.263671875 265.15234375 l 1
 497.484375 268.75390625 l 1
 587.51953125 179.91796875 l 1
 558.107421875 117.4921875 l 1
 204.564453125 -10.9599609375 l 1
 149.34375 -12.1591796875 l 1
 0.48046875 131.899414062 l 1
 320.775390625 455.490234375 l 1
 305.49609375 471.619140625 l 1
 180.712890625 363.8125 l 1
 124.6875 356.172851562 l 1
 7.541015625 464.828125 l 1
 21.123046875 519.15625 l 1
EndSplineSet
Validated: 1
EndChar

StartChar: three
Encoding: 51 51 39
Width: 579
VWidth: 753
Flags: W
HStem: 2.40039 21G<227.279 419.739> 624.661 20G<225.025 420.784>
LayerCount: 2
Fore
SplineSet
0.96875 485.139648438 m 1
 257.142578125 644.661132812 l 1
 383.197265625 644.661132812 l 1
 424.724609375 622.564453125 l 1
 523.876953125 523.412109375 l 1
 523.876953125 444.393554688 l 1
 431.216796875 349.341796875 l 1
 431.216796875 338.537109375 l 1
 578.875 183.673828125 l 1
 400.00390625 2.400390625 l 1
 260.74609375 2.400390625 l 1
 2.669921875 156.625976562 l 1
 0.125 199.918945312 l 1
 116.41796875 285.654296875 l 1
 163.103515625 274.619140625 l 1
 326.08984375 161.71875 l 1
 342.216796875 189.732421875 l 1
 183.48046875 344.2265625 l 1
 301.47265625 463.91796875 l 1
 289.58984375 479.198242188 l 1
 105.380859375 364.599609375 l 1
 63.787109375 378.181640625 l 1
 0.96875 443.544921875 l 1
 0.96875 485.139648438 l 1
EndSplineSet
Validated: 1
EndChar

StartChar: four
Encoding: 52 52 40
Width: 555
VWidth: 753
Flags: W
HStem: 10 21G<299.285 432.037> 591.094 20G<262.167 430.399>
VStem: 294.601 151.904<301.79 389.024>
LayerCount: 2
Fore
SplineSet
282.166992188 611.09375 m 1
 409.416015625 611.09375 l 1
 458.484375 564.323242188 l 1
 461.032226562 526.967773438 l 1
 433.025390625 495.559570312 l 1
 415.801757812 486.385742188 l 1
 398.829101562 462.0390625 l 1
 445.776367188 389.024414062 l 1
 446.504882812 301.790039062 l 1
 529.203125 291.251953125 l 1
 554.940429688 265.516601562 l 1
 554.940429688 171.7578125 l 1
 528.943359375 143.958984375 l 1
 483.491210938 139.756835938 l 1
 448.012695312 143.89453125 l 1
 454.615234375 62.2060546875 l 1
 418.015625 10 l 1
 299.28515625 10 l 1
 299.28515625 119.41796875 l 1
 254.559570312 108.79296875 l 1
 48.169921875 108.79296875 l 1
 0.0595703125 192.130859375 l 1
 142.315429688 471.2421875 l 1
 282.166992188 611.09375 l 1
298.6328125 417.53125 m 1
 261.953125 383.680664062 l 1
 228.154296875 300.767578125 l 1
 228.154296875 275.557617188 l 1
 275.868164062 262.768554688 l 1
 294.600585938 277.409179688 l 1
 293.22265625 364.993164062 l 1
 298.6328125 417.53125 l 1
EndSplineSet
Validated: 1
EndChar

StartChar: five
Encoding: 53 53 41
Width: 543
VWidth: 753
Flags: W
HStem: 6.13574 21G<144.276 344.386> 476.051 164.876<245.631 408.526>
LayerCount: 2
Fore
SplineSet
506.96875 528.081054688 m 1
 483.204101562 476.05078125 l 1
 245.630859375 476.05078125 l 1
 220.055664062 417.478515625 l 1
 367.759765625 442.944335938 l 1
 542.49609375 275.516601562 l 1
 542.637695312 202.713867188 l 1
 321.930664062 6.1357421875 l 1
 185.623046875 6.1357421875 l 1
 75.4580078125 59.423828125 l 1
 69.7822265625 109.102539062 l 1
 95.19921875 150.48828125 l 1
 168.338867188 150.48828125 l 1
 354.504882812 257.969726562 l 1
 318.489257812 286.782226562 l 1
 137.215820312 196.745117188 l 1
 61.5859375 197.947265625 l 1
 0.3623046875 320.396484375 l 1
 154.142578125 627.768554688 l 1
 180.435546875 640.926757812 l 1
 408.526367188 640.926757812 l 1
 506.96875 528.081054688 l 1
EndSplineSet
Validated: 1
EndChar

StartChar: six
Encoding: 54 54 42
Width: 580
VWidth: 753
Flags: W
HStem: 7.20801 21G<155.913 454.821> 619.854 20G<224.979 397.812>
LayerCount: 2
Fore
SplineSet
244.978515625 639.854492188 m 1
 380.637695312 639.854492188 l 1
 430.825195312 581.411132812 l 1
 445.793945312 555.4921875 l 1
 354.158203125 463.85546875 l 1
 364.1640625 446.5234375 l 1
 379.314453125 450.580078125 l 1
 416.658203125 440.575195312 l 1
 579.91796875 273.71484375 l 1
 579.91796875 168.068359375 l 1
 437.059570312 7.2080078125 l 1
 174.15234375 7.2080078125 l 1
 0.08203125 198.083984375 l 1
 0.08203125 248.504882812 l 1
 127.330078125 522.206054688 l 1
 244.978515625 639.854492188 l 1
296.189453125 324.135742188 m 1
 261.3125 316.611328125 l 1
 215.879882812 290.376953125 l 1
 198.850585938 226.799804688 l 1
 260.275390625 165.36328125 l 1
 308.440429688 176.4453125 l 1
 358.755859375 226.760742188 l 1
 358.755859375 268.909179688 l 1
 296.189453125 324.135742188 l 1
EndSplineSet
Validated: 1
EndChar

StartChar: seven
Encoding: 55 55 43
Width: 581
VWidth: 753
Flags: W
HStem: 9.00195 21G<123.013 308.501> 618.058 20G<134.226 494.556>
LayerCount: 2
Fore
SplineSet
0.0078125 428.58984375 m 1
 7.4189453125 478.653320312 l 1
 152.418945312 638.057617188 l 1
 447.736328125 638.057617188 l 1
 494.555664062 620.049804688 l 1
 580.9921875 508.404296875 l 1
 415.325195312 324.73046875 l 1
 301.276367188 9.001953125 l 1
 138.013671875 9.001953125 l 1
 105.599609375 52.21875 l 1
 91.1904296875 107.44140625 l 1
 234.048828125 391.95703125 l 1
 300.079101562 460.384765625 l 1
 292.875976562 475.991210938 l 1
 256.860351562 460.384765625 l 1
 130.809570312 335.534179688 l 1
 77.7548828125 329.702148438 l 1
 0.0078125 428.58984375 l 1
EndSplineSet
Validated: 1
EndChar

StartChar: eight
Encoding: 56 56 44
Width: 614
VWidth: 753
Flags: W
HStem: 3 21G<211.114 449.79> 502.918 141.145<288.232 418.669>
LayerCount: 2
Fore
SplineSet
143.133789062 644.0625 m 1
 442.047851562 640.459960938 l 1
 606.515625 532.41015625 l 1
 535.0859375 443.6171875 l 1
 494.0234375 441.180664062 l 1
 444.518554688 486.502929688 l 1
 418.668945312 499.166992188 l 1
 311.43359375 502.91796875 l 1
 247.572265625 483.188476562 l 1
 204.360351562 460.381835938 l 1
 204.360351562 421.975585938 l 1
 229.569335938 401.557617188 l 1
 271.5859375 407.557617188 l 1
 303.8671875 469.626953125 l 1
 324.654296875 486.61328125 l 1
 409.138671875 480.670898438 l 1
 433.729492188 469.54296875 l 1
 484.352539062 425.649414062 l 1
 491.068359375 394.930664062 l 1
 444.447265625 348.734375 l 1
 499.674804688 319.926757812 l 1
 613.724609375 199.875976562 l 1
 431.252929688 3 l 1
 246.376953125 3 l 1
 85.5029296875 94.2421875 l 1
 0.275390625 210.682617188 l 1
 122.715820312 343.942382812 l 1
 35.740234375 427.962890625 l 1
 32.0908203125 517.407226562 l 1
 143.133789062 644.0625 l 1
282.72265625 242.95703125 m 1
 282.72265625 242.958007812 l 1
 247.057617188 220.885742188 l 1
 244.510742188 179.2890625 l 1
 266.583007812 162.311523438 l 1
 292.91015625 160.616210938 l 1
 331.10546875 183.528320312 l 1
 365.061523438 220.884765625 l 1
 344.684570312 239.555664062 l 1
 282.72265625 242.95703125 l 1
EndSplineSet
Validated: 1
EndChar

StartChar: nine
Encoding: 57 57 45
Width: 606
VWidth: 753
Flags: W
HStem: -3.00098 21G<259.317 341.974> 630.063 20G<144.534 458.255>
LayerCount: 2
Fore
SplineSet
509.484375 404.564453125 m 1
 363.0234375 461.587890625 l 1
 329.408203125 483.196289062 l 1
 290.993164062 490.399414062 l 1
 260.982421875 477.194335938 l 1
 240.575195312 436.376953125 l 1
 264.583984375 403.963867188 l 1
 353.419921875 413.568359375 l 1
 382.229492188 436.376953125 l 1
 505.880859375 391.958984375 l 1
 515.485351562 370.350585938 l 1
 360.622070312 23.4091796875 l 1
 283.791015625 -3.0009765625 l 1
 172.146484375 88.2353515625 l 1
 162.543945312 139.856445312 l 1
 244.174804688 229.893554688 l 1
 234.571289062 247.900390625 l 1
 124.12890625 244.298828125 l 1
 37.689453125 300.721679688 l 1
 0.4775390625 359.545898438 l 1
 0.4775390625 480.795898438 l 1
 16.083984375 520.411132812 l 1
 144.534179688 642.861328125 l 1
 427.856445312 650.063476562 l 1
 519.087890625 590.040039062 l 1
 605.522460938 477.194335938 l 1
 545.499023438 408.766601562 l 1
 509.484375 404.564453125 l 1
EndSplineSet
Validated: 1
EndChar

StartChar: x
Encoding: 120 120 46
Width: 507
VWidth: 753
Flags: W
HStem: 10 21G<0.151367 128.264 326.935 437.594> 483.251 20G<101.885 142.23>
LayerCount: 2
Fore
SplineSet
11.6943359375 415.181640625 m 1
 128.384765625 503.250976562 l 1
 243.690429688 336.684570312 l 1
 374.11328125 494.83203125 l 1
 506.848632812 362.080078125 l 1
 321.0625 217.903320312 l 1
 436.440429688 100.040039062 l 1
 437.59375 14.6171875 l 1
 345.2578125 10 l 1
 230.990234375 134.729492188 l 1
 108.646484375 10 l 1
 0.1513671875 16.92578125 l 1
 11.6943359375 98.8857421875 l 1
 145.59765625 226.72265625 l 1
 11.6943359375 348.228515625 l 1
 11.6943359375 415.181640625 l 1
EndSplineSet
EndChar

StartChar: asterisk
Encoding: 42 42 47
Width: 772
VWidth: 753
Flags: W
HStem: 10 21G<186.522 229.857 554.147 597.476> 628.66 20G<380.344 403.632>
VStem: 364.043 55.9375<228.357 374.746>
LayerCount: 2
Fore
SplineSet
391.986328125 648.66015625 m 1
 506.103515625 452.671875 l 1
 727.771484375 404.724609375 l 1
 576.625 235.63671875 l 1
 599.50390625 10 l 1
 392.013671875 101.4921875 l 1
 184.494140625 10 l 1
 207.376953125 235.63671875 l 1
 56.228515625 404.724609375 l 1
 277.896484375 452.671875 l 1
 391.986328125 648.66015625 l 1
340.986328125 374.770507812 m 0
 328.287109375 374.72265625 317.98046875 341.920898438 317.98046875 301.553710938 c 0
 317.98046875 301.553710938 317.98046875 301.552734375 317.98046875 301.551757812 c 0
 317.98046875 301.55078125 317.98046875 301.549804688 317.98046875 301.549804688 c 0
 317.98046875 261.181640625 328.287109375 228.380859375 340.986328125 228.333007812 c 0
 340.9921875 228.333007812 341.001953125 228.333007812 341.0078125 228.333007812 c 0
 353.72265625 228.333007812 364.04296875 261.133789062 364.04296875 301.549804688 c 0
 364.04296875 301.549804688 364.04296875 301.55078125 364.04296875 301.551757812 c 0
 364.04296875 301.552734375 364.04296875 301.553710938 364.04296875 301.553710938 c 0
 364.04296875 341.969726562 353.72265625 374.770507812 341.0078125 374.770507812 c 0
 341.001953125 374.770507812 340.9921875 374.770507812 340.986328125 374.770507812 c 0
443.013671875 374.770507812 m 0
 430.298828125 374.767578125 419.98046875 341.966796875 419.98046875 301.553710938 c 0
 419.98046875 301.553710938 419.98046875 301.552734375 419.98046875 301.551757812 c 0
 419.98046875 301.55078125 419.98046875 301.549804688 419.98046875 301.549804688 c 0
 419.98046875 261.13671875 430.298828125 228.334960938 443.013671875 228.333007812 c 0
 455.71484375 228.380859375 466.021484375 261.181640625 466.021484375 301.549804688 c 0
 466.021484375 301.549804688 466.021484375 301.55078125 466.021484375 301.551757812 c 0
 466.021484375 301.552734375 466.021484375 301.553710938 466.021484375 301.553710938 c 0
 466.021484375 341.920898438 455.71484375 374.72265625 443.013671875 374.770507812 c 0
EndSplineSet
Validated: 1
EndChar

StartChar: dollar
Encoding: 36 36 48
Width: 708
VWidth: 753
Flags: W
HStem: 10 31<326.847 455.158> 617 32<332.93 453.354>
VStem: 92 78<208.001 447.421> 633 23<243.971 414.032>
LayerCount: 2
Fore
SplineSet
369 649 m 0
 536 648 656 497 656 329 c 24
 656 161 536 10 368 10 c 3
 184 10 92 170 92 330 c 0
 92 490 184 649 366 649 c 0
 367 649 368 649 369 649 c 0
401 617 m 1
 274 617 170 488 170 329 c 1
 170 170 274 41 401 41 c 1
 529 41 633 170 633 329 c 1
 633 488 529 617 401 617 c 1
431 539 m 1
 488 421 l 1
 599 392 l 1
 523 290 l 1
 535 153 l 1
 431 209 l 1
 327 153 l 1
 338 290 l 1
 262 392 l 1
 374 421 l 1
 431 539 l 1
EndSplineSet
Validated: 1
EndChar

StartChar: at
Encoding: 64 64 49
Width: 721
VWidth: 753
Flags: W
HStem: 10 110<258.005 325.342> 135 156<68.9948 156.991> 358 31<105 133.562> 616 20G<284 348.5>
VStem: 338 318<166 281>
LayerCount: 2
Fore
SplineSet
506 333 m 1
 481 290 479 299 465 286 c 0
 459 281 456 271 456 262 c 0
 456 248 463 235 480 230 c 0
 482 229 484 229 486 229 c 0
 513 229 528 279 559 333 c 1
 506 333 l 1
504 532 m 0
 529 502 657 524 657 389 c 0
 657 383 657 375 656 368 c 1
 656 321 617 321 617 321 c 1
 617 317 656 312 656 250 c 3
 656 191 612 173 583 168 c 1
 626 129 661 138 661 86 c 0
 661 39 624 25 590 25 c 0
 580 25 571 26 563 28 c 0
 544 33 527 51 515 68 c 1
 483 36 433 10 370 10 c 2
 312 10 l 2
 248 10 185 44 173 81 c 1
 176 78 181 77 185 77 c 0
 197 77 209 85 209 93 c 0
 209 94 209 94 209 95 c 1
 211 93 214 92 219 92 c 0
 233 92 256 102 258 125 c 1
 258 125 265 120 277 120 c 0
 285 120 294 122 305 127 c 0
 329 139 338 157 338 175 c 0
 338 204 315 232 299 232 c 0
 295 232 292 230 290 228 c 0
 273 211 245 156 157 137 c 1
 157 137 145 135 128 135 c 0
 95 135 44 145 44 208 c 0
 44 256 78 291 126 291 c 0
 137 291 149 289 161 285 c 1
 160 290 160 296 160 301 c 0
 160 333 170 355 170 355 c 1
 105 358 l 1
 91 389 l 1
 91 389 93 389 97 389 c 0
 108 389 130 392 147 421 c 1
 147 421 143 436 142 459 c 1
 150 450 160 444 171 442 c 0
 174 441 177 441 180 441 c 0
 209 441 236 468 242 504 c 0
 243 510 244 516 244 522 c 0
 244 554 225 582 198 587 c 0
 192 588 187 588 181 587 c 1
 222 623 264 636 304 636 c 0
 393 636 472 572 504 532 c 0
EndSplineSet
Validated: 1
EndChar

StartChar: slash
Encoding: 47 47 50
Width: 521
VWidth: 753
Flags: W
HStem: 10 21G<37.1396 196.467>
LayerCount: 2
Fore
SplineSet
270 794 m 1
 486.860351562 750.03125 l 1
 188.401367188 10 l 1
 37.1396484375 22.0048828125 l 1
 270 794 l 1
EndSplineSet
Validated: 1
EndChar

StartChar: quotedbl
Encoding: 34 34 52
Width: 419
VWidth: 753
Flags: W
HStem: 423.188 230.084
LayerCount: 2
Fore
SplineSet
231 645.732421875 m 1
 378.17578125 653.272460938 l 1
 392.041015625 509.137695312 l 1
 250.71484375 427.627929688 l 1
 181.150390625 467.749023438 l 1
 229 505 l 1
 231 645.732421875 l 1
49.904296875 641.29296875 m 1
 197.080078125 648.833007812 l 1
 210.9453125 504.698242188 l 1
 69.619140625 423.188476562 l 1
 0.0546875 463.309570312 l 1
 49.904296875 549.560546875 l 1
 49.904296875 641.29296875 l 1
EndSplineSet
Validated: 1
EndChar

StartChar: a
Encoding: 97 97 53
Width: 473
VWidth: 743
Flags: W
HStem: 0 21G<23.3036 168.66 316.692 472.939> 586.211 20G<287.578 327.329>
VStem: 314.297 151.836<0 104.164 245.114 382.916>
LayerCount: 2
Fore
SplineSet
312.443359375 606.2109375 m 5
 466.1328125 399.723632812 l 5
 472.939453125 0 l 5
 317.4921875 0 l 5
 313.322265625 104.1640625 l 5
 191.759765625 122.41015625 l 5
 164.1484375 0 l 5
 36.078125 0 l 5
 0.060546875 56.3896484375 l 5
 201.9921875 517.37109375 l 5
 312.443359375 606.2109375 l 5
315.4140625 382.916015625 m 5
 228.08984375 246.202148438 l 5
 314.296875 245.114257812 l 5
 315.4140625 382.916015625 l 5
EndSplineSet
EndChar

StartChar: b
Encoding: 98 98 54
Width: 485
VWidth: 753
Flags: W
HStem: 10 143.654<153.662 257.485> 628.66 20G<20.9384 333.419>
VStem: 21.6152 141.652<436.85 506.49>
LayerCount: 2
Fore
SplineSet
21.615234375 648.66015625 m 1
 339.737304688 628.254882812 l 1
 439.38671875 532.20703125 l 1
 447.790039062 454.184570312 l 1
 375.75390625 383.34765625 l 1
 484.998046875 274.103515625 l 1
 484.998046875 151.663085938 l 1
 343.34765625 10 l 1
 0.001953125 10 l 1
 21.615234375 648.66015625 l 1
257.485351562 497.856445312 m 1
 163.267578125 506.490234375 l 1
 153.662109375 153.654296875 l 1
 257.485351562 154.06640625 l 1
 307.90625 209.279296875 l 1
 307.90625 262.102539062 l 1
 231.081054688 382.638671875 l 1
 276.696289062 447.174804688 l 1
 276.696289062 469.047851562 l 1
 257.485351562 497.856445312 l 1
EndSplineSet
EndChar

StartChar: c
Encoding: 99 99 55
Width: 518
VWidth: 753
Flags: W
HStem: 10 21G<171.871 391.469> 624.957 20G<225.577 412.273>
LayerCount: 2
Fore
SplineSet
427.927734375 380.108398438 m 1
 305.688476562 490.461914062 l 1
 205.521484375 380.108398438 l 1
 200.428710938 308.802734375 l 1
 256.453125 249.381835938 l 1
 336.248046875 313.896484375 l 1
 390.575195312 313.896484375 l 1
 516.208984375 181.47265625 l 1
 512.813476562 144.122070312 l 1
 370.203125 10 l 1
 168.171875 30.373046875 l 1
 0.09375 198.44921875 l 1
 0.09375 366.526367188 l 1
 20.466796875 408.970703125 l 1
 244.5703125 644.95703125 l 1
 392.2734375 644.95703125 l 1
 517.90625 519.32421875 l 1
 517.483398438 474.333007812 l 1
 427.927734375 380.108398438 l 1
EndSplineSet
EndChar

StartChar: d
Encoding: 100 100 56
Width: 526
VWidth: 753
Flags: W
HStem: 10 21G<51.1818 174.992> 606.521 20G<0.0917969 235.325>
LayerCount: 2
Fore
SplineSet
186.935546875 626.521484375 m 1
 458.681640625 514.205078125 l 1
 525.908203125 446.977539062 l 1
 525.908203125 264.504882812 l 1
 494.685546875 206.889648438 l 1
 331.421875 55.6279296875 l 1
 52.9140625 10 l 1
 0.091796875 619.8515625 l 1
 186.935546875 626.521484375 l 1
350.6328125 420.572265625 m 1
 306.05859375 412.46875 l 1
 271.404296875 406.16796875 l 1
 196.966796875 247.698242188 l 1
 228.177734375 190.083007812 l 1
 297.80859375 221.29296875 l 1
 365.03515625 362.943359375 l 1
 350.6328125 420.572265625 l 1
EndSplineSet
EndChar

StartChar: e
Encoding: 101 101 57
Width: 505
VWidth: 753
Flags: W
HStem: 10 153.662<361.554 470.988> 556.03 20G<323.074 450.724>
LayerCount: 2
Fore
SplineSet
0.3974609375 470.987304688 m 1
 398.958984375 576.030273438 l 1
 504.602539062 535.213867188 l 1
 504.602539062 336.532226562 l 1
 262.103515625 336.532226562 l 1
 250.099609375 305.3203125 l 1
 283.711914062 298.1171875 l 1
 358.559570312 318.171875 l 1
 391.756835938 318.171875 l 1
 391.756835938 180.469726562 l 1
 230.890625 180.469726562 l 1
 196.077148438 145.655273438 l 1
 470.98828125 163.662109375 l 1
 470.98828125 10 l 1
 89.2333984375 10 l 1
 36.412109375 58.01953125 l 1
 0.3974609375 470.987304688 l 1
EndSplineSet
EndChar

StartChar: f
Encoding: 102 102 58
Width: 505
VWidth: 753
Flags: W
HStem: 6.90527 21G<130.918 253.825> 637.991 20G<282.566 451.985>
LayerCount: 2
Fore
SplineSet
0.384765625 547.637695312 m 1
 345.02734375 657.991210938 l 1
 451.985351562 642.711914062 l 1
 504.615234375 452.563476562 l 1
 467.264648438 413.515625 l 1
 243.162109375 413.515625 l 1
 254.197265625 327.779296875 l 1
 351.818359375 365.978515625 l 1
 416.33203125 365.978515625 l 1
 423.124023438 187.715820312 l 1
 391.3828125 169.389648438 l 1
 272.024414062 169.389648438 l 1
 272.024414062 45.1044921875 l 1
 233.825195312 6.9052734375 l 1
 134.506835938 6.9052734375 l 1
 84.2900390625 286.790039062 l 1
 0.384765625 547.637695312 l 1
EndSplineSet
EndChar

StartChar: g
Encoding: 103 103 59
Width: 531
VWidth: 753
Flags: W
HStem: 8.7998 21G<173.062 407.439> 629.86 20G<239.31 404.92>
LayerCount: 2
Fore
SplineSet
369.942382812 421.767578125 m 1
 305.116210938 491.395507812 l 1
 206.676757812 395.356445312 l 1
 197.072265625 313.723632812 l 1
 261.8984375 244.094726562 l 1
 365.140625 234.491210938 l 1
 386.749023438 258.500976562 l 1
 307.517578125 270.505859375 l 1
 278.705078125 306.520507812 l 1
 312.319335938 414.563476562 l 1
 514.000976562 380.950195312 l 1
 530.807617188 148.055664062 l 1
 386.749023438 8.7998046875 l 1
 173.0625 11.2001953125 l 1
 4.994140625 186.471679688 l 1
 0.1923828125 392.956054688 l 1
 259.497070312 649.860351562 l 1
 389.150390625 649.860351562 l 1
 487.58984375 525.009765625 l 1
 473.184570312 421.767578125 l 1
 369.942382812 421.767578125 l 1
EndSplineSet
EndChar

StartChar: h
Encoding: 104 104 60
Width: 533
VWidth: 753
Flags: W
HStem: 18.4775 21G<150.183 300.91> 625.133 17.5996G<173.729 261.003 348.702 516.998>
VStem: 346.529 170.469<474.284 642.732> 358.533 134.455<78.5029 178.362>
LayerCount: 2
Fore
SplineSet
32.001953125 592.3125 m 1xe0
 260.09375 645.1328125 l 1
 269.697265625 433.84765625 l 1
 346.529296875 431.446289062 l 1
 348.9296875 642.732421875 l 1
 516.998046875 642.732421875 l 1xe0
 492.98828125 78.5029296875 l 1
 358.533203125 73.7001953125 l 1xd0
 346.529296875 248.971679688 l 1
 303.310546875 249.571289062 l 1
 300.91015625 25.6796875 l 1
 154.451171875 18.4775390625 l 1
 32.001953125 592.310546875 l 1
 32.001953125 592.3125 l 1xe0
EndSplineSet
EndChar

StartChar: i
Encoding: 105 105 61
Width: 338
VWidth: 753
Flags: W
HStem: 10 21G<40.1396 196.549>
VStem: 40.1396 297.721<-97.081 -67.0348>
LayerCount: 2
Fore
SplineSet
40.1396484375 670.267578125 m 5
 337.860351562 579.03125 l 5
 191.401367188 10 l 5
 40.1396484375 22.0048828125 l 5
 40.1396484375 670.267578125 l 5
EndSplineSet
EndChar

StartChar: j
Encoding: 106 106 62
Width: 421
VWidth: 753
Flags: W
HStem: 10 21G<125.395 271.229> 613.073 20G<329.894 409.455>
LayerCount: 2
Fore
SplineSet
76.16015625 397.0859375 m 1
 111.8125 395.388671875 l 1
 142.372070312 266.359375 l 1
 203.490234375 201.845703125 l 1
 254.422851562 256.172851562 l 1
 249.330078125 335.967773438 l 1
 133.8828125 563.46484375 l 1
 408.916992188 633.073242188 l 1
 420.801757812 191.659179688 l 1
 252.724609375 10 l 1
 125.39453125 13.3955078125 l 1
 -86.82421875 227.311523438 l 1
 -103.801757812 283.336914062 l 1
 76.16015625 397.0859375 l 1
EndSplineSet
EndChar

StartChar: k
Encoding: 107 107 63
Width: 496
VWidth: 753
Flags: W
HStem: 10 19.0176G<13.7266 190.697 328.401 359.738> 614.256 20G<63.8381 190.697 352.438 392.587>
LayerCount: 2
Fore
SplineSet
85.0634765625 634.255859375 m 1
 190.697265625 631.852539062 l 1
 183.500976562 425.377929688 l 1
 373.33984375 607.0234375 l 1
 495.79296875 479.77734375 l 1
 390.146484375 424.55078125 l 1
 265.1328125 293.313476562 l 1
 331.73046875 229.893554688 l 1
 469.913085938 152.043945312 l 1
 341.971679688 8.017578125 l 1
 249.849609375 143.78515625 l 1
 190.697265625 216.48828125 l 1
 190.697265625 10 l 1
 13.7265625 10 l 1
 46.6435546875 180.470703125 l 1
 22.6279296875 439.782226562 l 1
 -39.79296875 516.607421875 l 1
 85.0634765625 634.255859375 l 1
EndSplineSet
EndChar

StartChar: l
Encoding: 108 108 64
Width: 452
VWidth: 753
Flags: W
HStem: 10 21G<288.498 375.668> 628.66 20G<14.3266 226.014>
LayerCount: 2
Fore
SplineSet
226.013671875 639.055664062 m 1
 175.59375 288.513671875 l 1
 451.70703125 283.7109375 l 1
 408.48828125 62.8212890625 l 1
 355.66796875 10 l 1
 -71.70703125 137.251953125 l 1
 17.828125 648.66015625 l 1
 226.013671875 639.055664062 l 1
EndSplineSet
EndChar

StartChar: m
Encoding: 109 109 65
Width: 539
VWidth: 753
Flags: W
HStem: 10 21G<5.48759 159.996 365.422 538.592> 607.979 20G<94.5681 116.791 462.15 486.038>
LayerCount: 2
Fore
SplineSet
0.408203125 10 m 1
 81.900390625 330.874023438 l 1
 95.482421875 627.979492188 l 1
 289.0234375 446.321289062 l 1
 484.265625 622.88671875 l 1
 538.591796875 10 l 1
 365.421875 10 l 1
 365.421875 229.008789062 l 1
 261.859375 91.4912109375 l 1
 180.369140625 239.1953125 l 1
 159.99609375 11.6982421875 l 1
 0.408203125 10 l 1
EndSplineSet
EndChar

StartChar: n
Encoding: 110 110 66
Width: 528
VWidth: 753
Flags: W
HStem: 10 0.469727G<64.5137 185.373 362.807 394.354> 578.111 60.7471G<100.541 143.492 358.225 528>
VStem: 64.5137 137.203<46.3447 165.868> 358.225 169.775<390.986 638.858>
LayerCount: 2
Fore
SplineSet
64.513671875 17.482421875 m 1
 47.537109375 368.916015625 l 1
 0 477.572265625 l 1
 120.541015625 598.111328125 l 1
 358.224609375 390.986328125 l 1
 358.224609375 638.858398438 l 1
 528 638.858398438 l 1
 528 143.115234375 l 1
 374.353515625 -10.5302734375 l 1
 201.716796875 288.485351562 l 1
 201.716796875 46.3447265625 l 1
 165.373046875 10 l 1
 64.513671875 17.482421875 l 1
EndSplineSet
EndChar

StartChar: o
Encoding: 111 111 67
Width: 522
VWidth: 753
Flags: W
HStem: 1.50488 21G<175.804 353.522> 541.763 20G<206.046 348.996>
LayerCount: 2
Fore
SplineSet
226.19921875 561.762695312 m 1
 328.0625 561.762695312 l 1
 518.203125 380.104492188 l 1
 521.604492188 184.870117188 l 1
 353.522460938 10 l 1
 195.630859375 1.5048828125 l 1
 0.3955078125 198.446289062 l 1
 2.08984375 339.361328125 l 1
 226.19921875 561.762695312 l 1
304.297851562 402.176757812 m 1
 199.032226562 300.311523438 l 1
 202.432617188 256.16796875 l 1
 258.447265625 203.541992188 l 1
 362.018554688 295.217773438 l 1
 367.11328125 341.0546875 l 1
 304.297851562 402.176757812 l 1
EndSplineSet
EndChar

StartChar: p
Encoding: 112 112 68
Width: 530
VWidth: 753
Flags: W
HStem: 9.30371 21G<87.9998 280.277> 629.355 20G<126.795 199.282 265.839 394.025>
LayerCount: 2
Fore
SplineSet
164.8359375 649.35546875 m 1
 217.4609375 618.80078125 l 1
 227.650390625 578.057617188 l 1
 283.677734375 640.873046875 l 1
 394.025390625 639.166015625 l 1
 529.845703125 505.051757812 l 1
 523.056640625 297.920898438 l 1
 380.44921875 163.794921875 l 1
 290.466796875 162.102539062 l 1
 273.48828125 126.453125 l 1
 280.27734375 27.98828125 l 1
 88.4296875 9.3037109375 l 1
 81.642578125 325.088867188 l 1
 0.154296875 562.774414062 l 1
 164.8359375 649.35546875 l 1
307.443359375 447.319335938 m 1
 251.41796875 435.436523438 l 1
 249.72265625 343.759765625 l 1
 271.794921875 325.088867188 l 1
 361.77734375 382.809570312 l 1
 307.443359375 447.319335938 l 1
EndSplineSet
EndChar

StartChar: q
Encoding: 113 113 69
Width: 532
VWidth: 753
Flags: W
HStem: -6.97754 15.0625G<161.588 288.671 402.601 441.184> 636.84 20G<188.754 381.186>
VStem: 7.09668 152.796<215.424 308.807> 364.893 166.8<296.494 380.104>
LayerCount: 2
Fore
SplineSet
365.317382812 656.83984375 m 1
 528.3046875 451.416015625 l 1
 531.692382812 269.7578125 l 1
 443.416992188 174.680664062 l 1
 523.2109375 86.392578125 l 1
 420.498046875 -12.9150390625 l 1
 348.33984375 67.720703125 l 1
 266.853515625 -6.9775390625 l 1
 161.587890625 10 l 1
 7.0966796875 174.680664062 l 1
 0.3076171875 446.321289062 l 1
 188.75390625 638.16796875 l 1
 365.317382812 656.83984375 l 1
283.831054688 427.649414062 m 1
 214.212890625 391.987304688 l 1
 159.892578125 308.806640625 l 1
 163.280273438 215.423828125 l 1
 210.822265625 188.262695312 l 1
 244.220703125 212.431640625 l 1
 197.122070312 259.940429688 l 1
 302.615234375 342.634765625 l 1
 351.03125 284.702148438 l 1
 364.892578125 296.494140625 l 1
 363.624023438 380.104492188 l 1
 283.831054688 427.649414062 l 1
EndSplineSet
EndChar

StartChar: r
Encoding: 114 114 70
Width: 483
VWidth: 753
Flags: W
HStem: 4.21582 21G<2.48633 155.283 244.616 482.951> 634.443 20G<222.701 293.835>
VStem: 2.48633 152.797<9.29785 107.775>
LayerCount: 2
Fore
SplineSet
272.431640625 654.443359375 m 1
 479.55078125 460.903320312 l 1
 481.244140625 389.592773438 l 1
 318.26953125 221.524414062 l 1
 374.296875 165.497070312 l 1
 445.595703125 163.802734375 l 1
 482.951171875 129.84765625 l 1
 482.951171875 4.2158203125 l 1
 257.1484375 4.2158203125 l 1
 168.859375 145.118164062 l 1
 155.283203125 107.775390625 l 1
 155.283203125 9.2978515625 l 1
 2.486328125 9.2978515625 l 1
 5.88671875 401.48828125 l 1
 -39.951171875 528.8125 l 1
 272.431640625 654.443359375 l 1
201.12109375 467.706054688 m 1
 201.12109375 370.935546875 l 1
 224.888671875 353.958007812 l 1
 262.244140625 348.875976562 l 1
 279.220703125 369.241210938 l 1
 277.52734375 430.36328125 l 1
 201.12109375 467.706054688 l 1
EndSplineSet
EndChar

StartChar: s
Encoding: 115 115 71
Width: 528
VWidth: 753
Flags: W
HStem: 10.1553 21G<129.975 384.144> 628.504 20G<181.174 387.088>
LayerCount: 2
Fore
SplineSet
427.833984375 364.985351562 m 1
 300.501953125 475.337890625 l 1
 239.3828125 426.103515625 l 1
 259.755859375 404.032226562 l 1
 407.4609375 334.424804688 l 1
 528 195.209960938 l 1
 366.712890625 10.1552734375 l 1
 159.58984375 10.1552734375 l 1
 28.86328125 98.4384765625 l 1
 1.69921875 162.952148438 l 1
 130.7265625 285.190429688 l 1
 219.009765625 196.907226562 l 1
 301.8671875 194.422851562 l 1
 314.083984375 215.583984375 l 1
 79.794921875 319.146484375 l 1
 0 421.010742188 l 1
 198.63671875 648.50390625 l 1
 387.087890625 641.71875 l 1
 505.9296875 519.48046875 l 1
 521.208984375 456.663085938 l 1
 427.833984375 364.985351562 l 1
EndSplineSet
EndChar

StartChar: t
Encoding: 116 116 72
Width: 516
VWidth: 753
Flags: W
HStem: 10 21G<89.0399 352.826> 619.863 20G<4.78906 513.124>
LayerCount: 2
Fore
SplineSet
4.7890625 636.46875 m 1
 515.810546875 639.86328125 l 1
 494.943359375 484.493164062 l 1
 332.892578125 455.146484375 l 1
 352.826171875 25.279296875 l 1
 84.58203125 10 l 1
 177.52734375 426.999023438 l 1
 0.189453125 396.263671875 l 1
 4.7890625 636.46875 l 1
EndSplineSet
EndChar

StartChar: u
Encoding: 117 117 73
Width: 527
VWidth: 753
Flags: W
HStem: 8.30273 21G<186.415 365.363> 561.445 20G<3.74414 264.174>
VStem: 0.349609 275.035<229.008 441.572> 3.74414 259.756<368.881 569.562> 322.922 203.729<232.404 449.364> 333.107 186.752<323.739 532.211>
LayerCount: 2
Fore
SplineSet
263.5 581.4453125 m 1xd0
 275.384765625 229.0078125 l 1
 288.49609375 205.375 l 1
 307.216796875 204.81640625 l 1
 322.921875 232.404296875 l 1xe8
 333.107421875 540.69921875 l 1
 519.859375 532.2109375 l 1xc4
 526.650390625 189.9609375 l 1
 365.36328125 10 l 1
 205.775390625 8.302734375 l 1
 0.349609375 220.520507812 l 1xe8
 3.744140625 569.561523438 l 1
 263.5 581.4453125 l 1xd0
EndSplineSet
EndChar

StartChar: v
Encoding: 118 118 74
Width: 530
VWidth: 753
Flags: W
HStem: -3.58203 21G<219.196 344.795> 613.073 42.0703G<134.677 266.703 310.135 349.628>
LayerCount: 2
Fore
SplineSet
266.703125 638.166015625 m 1
 246.326171875 342.7578125 l 1
 279.0078125 269.754882812 l 1
 285.373046875 335.966796875 l 1
 298.955078125 597.419921875 l 1
 324.419921875 633.073242188 l 1
 529.849609375 470.088867188 l 1
 344.794921875 10 l 1
 227.650390625 -3.58203125 l 1
 0.150390625 534.603515625 l 1
 161.4375 655.143554688 l 1
 266.703125 638.166015625 l 1
EndSplineSet
EndChar

StartChar: w
Encoding: 119 119 75
Width: 520
VWidth: 753
Flags: W
HStem: 6.86035 10.8135G<111.632 138.45 430.556 454.125> 642.19 20G<156.916 203.206 332.383 414.485>
LayerCount: 2
Fore
SplineSet
0.2451171875 575.60546875 m 1
 203.975585938 662.190429688 l 1
 192.08984375 353.200195312 l 1
 263.396484375 434.692382812 l 1
 324.513671875 365.084960938 l 1
 333.00390625 638.421875 l 1
 519.754882812 592.583007812 l 1
 451.845703125 -3.326171875 l 1
 283.76953125 154.564453125 l 1
 115.69140625 6.8603515625 l 1
 0.2451171875 575.60546875 l 1
EndSplineSet
EndChar

StartChar: y
Encoding: 121 121 76
Width: 523
VWidth: 753
Flags: W
HStem: 10 21G<135.867 392.023> 630.357 18.3027G<129.467 212.264 351.446 420.347>
LayerCount: 2
Fore
SplineSet
0.046875 519.630859375 m 1
 152.84375 650.357421875 l 1
 212.263671875 648.66015625 l 1
 283.5703125 495.862304688 l 1
 361.66796875 648.66015625 l 1
 402.4140625 648.66015625 l 1
 522.953125 514.23046875 l 1
 388.83203125 343.065429688 l 1
 392.2265625 10 l 1
 135.8671875 11.697265625 l 1
 113.794921875 77.9091796875 l 1
 224.1484375 302.3203125 l 1
 0.046875 519.630859375 l 1
EndSplineSet
EndChar

StartChar: z
Encoding: 122 122 77
Width: 544
VWidth: 753
Flags: W
HStem: 2.51367 21G<80.6074 504.174> 443.004 206.351<39.4707 292.676>
LayerCount: 2
Fore
SplineSet
39.470703125 649.354492188 m 1
 377.322265625 656.145507812 l 1
 528.419921875 501.651367188 l 1
 533.513671875 435.438476562 l 1
 278.02734375 225.998046875 l 1
 279.724609375 197.13671875 l 1
 496.8671875 226.590820312 l 1
 543.69921875 70.4228515625 l 1
 487.673828125 2.513671875 l 1
 80.607421875 9.3046875 l 1
 0.30078125 127.323242188 l 1
 292.67578125 448.096679688 l 1
 10.283203125 443.00390625 l 1
 5.513671875 589.93359375 l 1
 39.470703125 649.354492188 l 1
EndSplineSet
EndChar

StartChar: colon
Encoding: 58 58 78
Width: 246
VWidth: 753
Flags: W
HStem: -0.186523 21G<34.3337 191.293>
VStem: 8.85254 236.673
LayerCount: 2
Fore
SplineSet
48 437 m 1
 166.370117188 457.0078125 l 1
 217.723632812 441.330078125 l 1
 240.903320312 363.190429688 l 1
 209.131835938 312.040039062 l 1
 47.2333984375 288.818359375 l 1
 19.173828125 320.846679688 l 1
 8.8525390625 397.74609375 l 1
 48 437 l 1
52.6220703125 147.995117188 m 1
 170.9921875 168.002929688 l 1
 222.345703125 152.325195312 l 1
 245.525390625 74.185546875 l 1
 213.75390625 23.03515625 l 1
 51.85546875 -0.1865234375 l 1
 23.7958984375 31.841796875 l 1
 13.474609375 108.741210938 l 1
 52.6220703125 147.995117188 l 1
EndSplineSet
EndChar

StartChar: semicolon
Encoding: 59 59 79
Width: 233
VWidth: 753
Flags: W
VStem: 4.85254 232.051
LayerCount: 2
Fore
SplineSet
67.1494140625 162.25390625 m 5
 139.8984375 182.26171875 l 5
 191.25390625 166.583984375 l 5
 214.431640625 88.4443359375 l 5
 182.66015625 37.2939453125 l 5
 86.791015625 -91.5703125 l 5
 38.3232421875 -71.5478515625 l 5
 94.546875 39.1142578125 l 5
 41.15234375 44.6796875 l 5
 28 123 l 5
 67.1494140625 162.25390625 l 5
44 445 m 1
 162.370117188 465.0078125 l 1
 213.723632812 449.330078125 l 1
 236.903320312 371.190429688 l 1
 205.131835938 320.040039062 l 1
 43.2333984375 296.818359375 l 1
 15.173828125 328.846679688 l 1
 4.8525390625 405.74609375 l 1
 44 445 l 1
EndSplineSet
EndChar
